<?xml version="1.0" encoding="utf-8"?>
<!-- License: CC Attribution. Made by Shannon E. Thomas: https://dribbble.com/shannonethomas -->
<svg version="1.1" id="Uploaded to svgrepo.com" xmlns="http://www.w3.org/2000/svg" xmlns:xlink="http://www.w3.org/1999/xlink" 
	 width="800px" height="800px" viewBox="0 0 32 32" xml:space="preserve">
<style type="text/css">
	.puchipuchi_een{fill:#111918;}
</style>
<path class="puchipuchi_een" d="M6,11h4.78c0.549-0.609,1.337-1,2.22-1h8V5c0-1.1-0.9-2-2-2H3C1.9,3,1,3.9,1,5v11c0,1.1,0.9,2,2,2h4
	l3,3v-8H6c-0.552,0-1-0.448-1-1S5.448,11,6,11z M6,7h10c0.552,0,1,0.448,1,1s-0.448,1-1,1H6C5.448,9,5,8.552,5,8S5.448,7,6,7z
	 M29,11H13c-1.1,0-2,0.9-2,2v11c0,1.1,0.9,2,2,2h5l3,3l3-3h5c1.1,0,2-0.9,2-2V13C31,11.9,30.1,11,29,11z M26,21H16
	c-0.552,0-1-0.448-1-1s0.448-1,1-1h10c0.552,0,1,0.448,1,1S26.552,21,26,21z M26,17H16c-0.552,0-1-0.448-1-1s0.448-1,1-1h10
	c0.552,0,1,0.448,1,1S26.552,17,26,17z"/>
</svg>